<svg id="Capa_1" enable-background="new 0 0 512 512" height="512" viewBox="0 0 512 512" width="512" xmlns="http://www.w3.org/2000/svg"><g><path d="m512 150v332h-152.57c-41.925 0-63.974 28.428-66.22 30h-74.42c-2.278-1.594-24.012-30-66.22-30h-152.57v-362h30v332h122.7c46.882 0 72.978 26.451 79.48 30h47.64c6.499-3.548 32.602-30 79.48-30h122.7v-302z"/><path d="m210.93 433.97c-18.22-7.88-37.93-11.97-58.23-11.97h-92.7v-362h30v302h45c40.88 0 74.32 32.01 75.93 71.97z"/><path d="m359.3 90c-31.774 0-62.377 8.324-89.354 24.241.697 6.814 1.054 13.743 1.054 20.759v316.371c2.009-1.457 4.306-3.072 6.923-4.79 46.316-30.89 78.229-24.581 174.077-24.581v-332z"/><g><path d="m241 437c0-57.897-47.551-105-106-105h-15v-332c74.991 0 121 60.561 121 135z"/></g></g></svg>