<?xml version="1.0" standalone="no"?>
<!DOCTYPE svg PUBLIC "-//W3C//DTD SVG 20010904//EN"
 "http://www.w3.org/TR/2001/REC-SVG-20010904/DTD/svg10.dtd">
<svg version="1.0" xmlns="http://www.w3.org/2000/svg"
 width="512.000000pt" height="512.000000pt" viewBox="0 0 512.000000 512.000000"
 preserveAspectRatio="xMidYMid meet">

<g transform="translate(0.000000,512.000000) scale(0.100000,-0.100000)"
fill="#000000" stroke="none">
<path d="M1758 4783 c-41 -25 -48 -54 -48 -183 l0 -120 -281 0 c-246 0 -284
-2 -310 -17 -15 -9 -32 -24 -36 -32 -4 -9 -10 -97 -13 -196 l-5 -180 -500 -5
c-275 -3 -507 -9 -516 -13 -9 -5 -24 -23 -33 -40 -16 -30 -17 -163 -14 -1822
2 -984 7 -1798 12 -1808 4 -10 18 -23 30 -30 16 -9 494 -13 2146 -15 1169 -1
2152 1 2185 5 52 7 62 12 82 41 32 48 655 1926 657 1980 1 37 -4 48 -32 73
l-32 29 -285 0 -285 0 -2 823 -3 824 -268 274 c-148 151 -307 309 -354 352
l-85 77 -992 0 c-905 -1 -993 -2 -1018 -17z m1872 -490 c5 -288 5 -293 28
-315 22 -23 27 -23 315 -28 l292 -5 0 -745 0 -745 -1172 -3 -1173 -2 0 1070 0
1070 853 -2 852 -3 5 -292z m480 -130 c0 -2 -61 -3 -135 -3 l-135 0 0 137 0
138 135 -135 c74 -74 135 -136 135 -137z m-2405 -803 l0 -905 -212 -3 -213 -2
0 910 0 910 213 -2 212 -3 0 -905z m-637 -212 l-3 -693 -188 -5 c-181 -5 -190
-6 -207 -28 -10 -12 -116 -315 -235 -672 -119 -358 -219 -650 -221 -650 -2 0
-4 617 -4 1370 l0 1370 430 0 430 0 -2 -692z m3792 -915 c0 -5 -127 -389 -282
-855 l-283 -848 -2017 0 c-1110 0 -2018 3 -2018 7 0 5 127 389 282 855 l283
848 2017 0 c1110 0 2018 -3 2018 -7z"/>
<path d="M2177 3710 c-38 -30 -52 -80 -33 -123 28 -69 12 -67 631 -67 502 0
560 2 585 17 58 34 68 116 21 164 l-29 29 -575 0 c-561 0 -575 0 -600 -20z"/>
<path d="M2193 3294 c-29 -15 -63 -65 -63 -94 0 -30 34 -80 65 -94 49 -24 681
-24 730 0 31 14 65 64 65 94 0 30 -34 80 -65 94 -49 24 -684 23 -732 0z"/>
</g>
</svg>
